<?xml version="1.0" standalone="no"?>
<!DOCTYPE svg PUBLIC "-//W3C//DTD SVG 20010904//EN"
 "http://www.w3.org/TR/2001/REC-SVG-20010904/DTD/svg10.dtd">
<svg version="1.0" xmlns="http://www.w3.org/2000/svg"
 width="256.000000pt" height="256.000000pt" viewBox="0 0 256.000000 256.000000"
 preserveAspectRatio="xMidYMid meet">
<metadata>
Created by potrace 1.10, written by Peter Selinger 2001-2011
</metadata>
<g transform="translate(0.000000,256.000000) scale(0.050000,-0.050000)"
fill="#000000" stroke="none">
<path d="M2230 5098 c-2103 -289 -2969 -2844 -1473 -4341 1609 -1609 4352
-473 4352 1803 0 1541 -1367 2746 -2879 2538z m1060 -965 c150 -156 279 -456
677 -1573 115 -324 247 -680 293 -790 141 -338 137 -339 -219 -17 -386 350
-501 320 -1002 -266 -295 -343 -511 -510 -686 -531 -55 -6 -59 1 -154 254
-215 570 -302 683 -513 663 l-126 -12 -379 265 c-208 145 -377 272 -374 281 2
9 220 106 483 215 399 166 488 210 529 264 151 196 286 312 425 365 189 73
345 220 518 489 227 352 273 412 342 446 91 45 92 45 186 -53z"/>
<path d="M2730 3521 c-117 -169 -332 -329 -495 -369 -56 -13 -232 -176 -312
-288 l-44 -62 189 -143 c105 -78 198 -137 209 -131 67 41 311 533 481 967 50
126 45 130 -28 26z"/>
<path d="M1380 2559 c-203 -86 -378 -160 -387 -164 -9 -3 121 -104 290 -223
l306 -217 204 102 c194 96 407 287 407 364 0 31 -371 299 -412 297 -21 -1
-204 -73 -408 -159z"/>
</g>
</svg>
