<?xml version="1.0" standalone="no"?>
<!DOCTYPE svg PUBLIC "-//W3C//DTD SVG 20010904//EN"
 "http://www.w3.org/TR/2001/REC-SVG-20010904/DTD/svg10.dtd">
<svg version="1.0" xmlns="http://www.w3.org/2000/svg"
 width="300.000000pt" height="103.000000pt" viewBox="0 0 300.000000 103.000000"
 preserveAspectRatio="xMidYMid meet">
<metadata>
Created by potrace 1.10, written by Peter Selinger 2001-2011
</metadata>
<g transform="translate(0.000000,103.000000) scale(0.050000,-0.050000)"
fill="#000000" stroke="none">
<path d="M4945 1461 c-66 -29 -59 -31 100 -31 160 0 269 -45 305 -126 29 -64
53 -54 46 20 -11 114 -299 202 -451 137z"/>
<path d="M1735 1418 c-58 -33 -52 -448 7 -479 50 -27 178 -8 179 27 8 249 -2
442 -25 457 -35 22 -118 20 -161 -5z"/>
<path d="M2277 1414 c-173 -40 -176 -45 -171 -281 l4 -203 115 -6 115 -6 0
189 c0 221 -8 213 223 213 235 0 242 -6 234 -217 l-6 -173 115 -6 115 -6 -5
226 -6 226 -80 27 c-112 38 -513 48 -653 17z"/>
<path d="M3340 1414 c-145 -33 -160 -44 -160 -122 0 -88 42 -105 376 -152 277
-39 332 -60 287 -105 -41 -41 -369 -33 -417 10 -60 54 -246 50 -246 -6 0 -80
117 -108 450 -108 360 1 450 26 450 128 0 93 -64 121 -373 162 -272 36 -346
62 -287 100 62 39 374 29 422 -13 57 -51 242 -38 234 17 -13 92 -478 148 -736
89z"/>
<path d="M4827 1362 c-91 -56 -101 -162 -15 -162 20 0 27 12 20 35 -31 99 145
159 303 104 132 -46 106 -110 -92 -234 l-153 -95 287 -6 c287 -5 343 6 343 66
0 20 -16 20 -75 -1 -41 -15 -147 -28 -235 -28 l-160 -1 122 78 c130 82 159
123 129 181 -54 99 -349 139 -474 63z"/>
<path d="M1413 1335 c-65 -48 -39 -378 31 -403 121 -43 156 4 156 207 0 212
-68 283 -187 196z"/>
<path d="M1100 1262 c-80 -22 -77 -302 4 -330 113 -40 156 7 156 168 0 130
-48 210 -106 178 -2 -1 -26 -8 -54 -16z"/>
<path d="M4208 1197 c-28 -46 57 -77 211 -77 189 1 241 14 241 62 0 46 -424
59 -452 15z"/>
<path d="M733 1167 c-40 -40 -12 -208 38 -231 120 -55 234 112 148 215 -24 29
-161 40 -186 16z"/>
<path d="M403 1083 c-15 -10 -23 -42 -20 -75 14 -121 217 -113 217 9 0 77
-118 116 -197 66z"/>
<path d="M4783 946 c-27 -21 27 -25 305 -21 235 4 341 12 346 28 12 35 -605
28 -651 -7z"/>
<path d="M633 806 c-7 -7 -13 -39 -13 -71 l0 -58 -78 61 c-112 89 -142 83
-142 -28 0 -109 54 -130 64 -26 l6 64 73 -64 c103 -91 137 -85 137 25 0 84
-20 125 -47 97z"/>
<path d="M850 805 l-100 -7 7 -89 7 -89 119 0 c79 0 115 7 106 21 -7 12 -49
19 -94 15 -52 -4 -84 3 -90 19 -6 18 19 25 83 25 51 0 92 9 92 20 0 11 -40 20
-90 20 -49 0 -90 9 -90 20 0 11 46 20 101 20 63 0 97 8 89 20 -7 11 -19 18
-26 16 -8 -2 -59 -7 -114 -11z"/>
<path d="M1020 795 c0 -8 23 -15 50 -15 45 0 50 -8 50 -80 0 -58 8 -80 30 -80
22 0 30 22 30 81 0 117 110 112 165 -6 44 -94 84 -95 130 -4 l37 71 34 -71
c43 -92 84 -90 134 8 48 94 48 101 12 101 -15 0 -38 -29 -51 -65 -24 -66 -81
-39 -81 39 0 53 -79 26 -112 -38 l-33 -64 -34 67 -35 67 -163 2 c-90 1 -163
-5 -163 -13z"/>
<path d="M1820 795 c-62 -32 -77 -113 -28 -149 92 -67 288 -14 288 78 0 74
-167 120 -260 71z m168 -27 c44 -17 40 -82 -7 -107 -55 -30 -90 -26 -141 15
-78 63 38 134 148 92z"/>
<path d="M2605 767 c-83 -50 -85 -50 -85 -9 0 23 -11 42 -25 42 -16 0 -25 -31
-25 -90 0 -59 9 -90 25 -90 14 0 25 14 25 31 0 51 55 55 119 9 34 -23 77 -40
96 -36 26 5 15 19 -43 55 l-79 48 64 30 c64 31 84 64 38 62 -14 0 -63 -24
-110 -52z"/>
<path d="M2965 800 c-85 -36 -26 -100 93 -100 33 0 65 -8 71 -19 20 -32 -69
-46 -131 -20 -63 26 -107 9 -57 -22 49 -31 211 -23 240 13 34 40 3 62 -116 80
-46 7 -80 20 -74 30 16 26 117 22 145 -6 13 -13 30 -17 37 -9 44 43 -128 87
-208 53z"/>
<path d="M4033 806 c-7 -7 -13 -42 -13 -78 0 -71 -46 -101 -120 -78 -30 9 -40
30 -40 81 0 48 -9 69 -30 69 -37 0 -42 -120 -6 -156 77 -77 256 -15 256 89 0
64 -22 98 -47 73z"/>
<path d="M4160 720 l0 -100 138 0 c97 0 144 9 162 30 33 40 140 38 170 -3 13
-18 34 -29 47 -25 35 12 -92 178 -136 178 -20 0 -59 -34 -88 -75 -49 -72 -55
-75 -152 -68 l-101 7 0 78 c0 43 -9 78 -20 78 -11 0 -20 -45 -20 -100z"/>
<path d="M4671 802 c-8 -14 6 -22 38 -22 46 0 51 -8 51 -80 0 -58 8 -80 30
-80 22 0 30 22 30 79 0 74 4 79 65 87 53 6 49 8 -25 11 -49 2 -109 9 -133 15
-23 6 -49 2 -56 -10z"/>
<path d="M5020 795 c-119 -62 -58 -175 95 -175 111 0 165 29 165 88 0 89 -157
142 -260 87z m168 -27 c49 -19 38 -86 -18 -112 -64 -29 -150 6 -150 62 0 54
88 81 168 50z"/>
<path d="M2140 711 c0 -68 8 -91 30 -91 17 0 30 18 30 40 0 32 13 40 68 40 51
0 70 -10 78 -40 6 -22 24 -40 41 -40 21 0 27 11 19 32 -6 18 -13 56 -14 85 -2
51 -7 53 -127 59 l-125 6 0 -91z m209 51 c13 -22 -35 -42 -101 -42 -29 0 -48
12 -48 30 0 33 129 44 149 12z"/>
<path d="M3251 716 c6 -118 49 -125 49 -8 0 63 -8 92 -26 92 -19 0 -25 -26
-23 -84z"/>
<path d="M3380 710 c0 -109 54 -130 64 -25 l6 65 39 -65 c50 -81 68 -81 135 0
l55 65 0 -65 c1 -36 10 -65 21 -65 11 0 20 41 20 90 0 110 -48 123 -110 30
-50 -74 -57 -74 -110 0 -67 94 -120 81 -120 -30z"/>
<path d="M5340 710 c0 -67 8 -90 30 -90 17 0 30 18 30 40 0 32 13 40 69 40 51
0 72 -10 81 -40 7 -22 26 -40 41 -40 33 0 36 18 10 59 -12 19 -11 39 2 54 38
46 -4 67 -134 67 l-129 0 0 -90z m209 52 c13 -22 -35 -42 -101 -42 -29 0 -48
12 -48 30 0 33 129 44 149 12z"/>
</g>
</svg>
